<svg viewBox="0 0 24 24" fill="none" xmlns="http://www.w3.org/2000/svg" id="Wineglass--Streamline-Solar-Ar" height="24" width="24">
  <desc>
    Wineglass Streamline Icon: https://streamlinehq.com
  </desc>
  <path d="M12.75 15.2856c0 -0.4142 -0.3358 -0.75 -0.75 -0.75s-0.75 0.3358 -0.75 0.75h1.5Zm3 6.4643c0.4142 0 0.75 -0.3358 0.75 -0.75s-0.3358 -0.75 -0.75 -0.75v1.5Zm-7.5 -1.5c-0.41421 0 -0.75 0.3358 -0.75 0.75s0.33579 0.75 0.75 0.75v-1.5Zm3 -4.9643v5.7143h1.5v-5.7143h-1.5Zm4.5 4.9643H12v1.5h3.75v-1.5Zm-3.75 0H8.25v1.5H12v-1.5ZM6.89474 3.75H17.1053v-1.5H6.89474v1.5ZM18.25 4.89474V8h1.5V4.89474h-1.5ZM5.75 8V4.89474h-1.5V8h1.5ZM12 14.25c-3.45178 0 -6.25 -2.7982 -6.25 -6.25h-1.5c0 4.2802 3.46979 7.75 7.75 7.75v-1.5ZM18.25 8c0 3.4518 -2.7982 6.25 -6.25 6.25v1.5c4.2802 0 7.75 -3.4698 7.75 -7.75h-1.5Zm-1.1447 -4.25c0.6322 0 1.1447 0.51252 1.1447 1.14474h1.5c0 -1.46065 -1.1841 -2.64474 -2.6447 -2.64474v1.5ZM6.89474 2.25C5.43409 2.25 4.25 3.43409 4.25 4.89474h1.5c0 -0.63222 0.51252 -1.14474 1.14474 -1.14474v-1.5Z" fill="#000000" stroke-width="1.5"></path>
  <path d="M5.5 8.99985s2.08115 -0.91273 3.5 -1c2.4652 -0.15162 3.5348 2.15165 6 2 1.4188 -0.08726 3.5 -1 3.5 -1" stroke="#000000" stroke-linecap="round" stroke-width="1.5"></path>
</svg>