<svg xmlns="http://www.w3.org/2000/svg" viewBox="0 0 24 24" fill="none" stroke="#000000" stroke-linecap="round" stroke-linejoin="round" id="Truck-Return--Streamline-Tabler" height="24" width="24">
  <desc>
    Truck Return Streamline Icon: https://streamlinehq.com
  </desc>
  <path d="M5 17a2 2 0 1 0 4 0 2 2 0 1 0 -4 0" stroke-width="2"></path>
  <path d="M15 17a2 2 0 1 0 4 0 2 2 0 1 0 -4 0" stroke-width="2"></path>
  <path d="M5 17H3V6a1 1 0 0 1 1 -1h9v6H8l2 2m0 -4 -2 2" stroke-width="2"></path>
  <path d="m9 17 6 0" stroke-width="2"></path>
  <path d="M13 6h5l3 5v6h-2" stroke-width="2"></path>
</svg>