<svg viewBox="0 0 24 24" fill="none" xmlns="http://www.w3.org/2000/svg" id="Cart--Streamline-Solar-Ar" height="24" width="24">
  <desc>
    Cart Streamline Icon: https://streamlinehq.com
  </desc>
  <path d="M3.86379 16.4552c-0.85795 -3.4318 -1.28692 -5.1477 -0.38609 -6.3014C4.37853 9 6.14724 9 9.68465 9h4.63065c3.5374 0 5.3061 0 6.207 1.1538 0.9008 1.1537 0.4718 2.8696 -0.3861 6.3014 -0.5457 2.1827 -0.8185 3.274 -1.6323 3.9094C17.6901 21 16.5652 21 14.3153 21H9.68465c-2.24986 0 -3.37479 0 -4.18857 -0.6354 -0.81378 -0.6354 -1.08662 -1.7267 -1.63229 -3.9094Z" stroke="#000000" stroke-width="1.5"></path>
  <path d="m19.5 9.5 -0.7104 -2.60535c-0.2739 -1.0046 -0.4109 -1.5069 -0.6918 -1.88519 -0.2798 -0.37673 -0.66 -0.66712 -1.097 -0.83794C16.5619 4 16.0413 4 15 4M4.5 9.5l0.7104 -2.60535c0.27392 -1.0046 0.41088 -1.5069 0.69181 -1.88519 0.27978 -0.37673 0.65995 -0.66712 1.09701 -0.83794C7.43808 4 7.95872 4 9 4" stroke="#000000" stroke-width="1.5"></path>
  <path d="M9 4c0 -0.55228 0.44772 -1 1 -1h4c0.5523 0 1 0.44772 1 1s-0.4477 1 -1 1h-4c-0.55228 0 -1 -0.44772 -1 -1Z" stroke="#000000" stroke-width="1.5"></path>
</svg>