<svg xmlns="http://www.w3.org/2000/svg" viewBox="0 0 24 24" fill="none" stroke="#000000" stroke-linecap="round" stroke-linejoin="round" id="Basket--Streamline-Tabler" height="24" width="24">
  <desc>
    Basket Streamline Icon: https://streamlinehq.com
  </desc>
  <path d="M10 14a2 2 0 1 0 4 0 2 2 0 0 0 -4 0" stroke-width="2"></path>
  <path d="M5.001 8H19a2 2 0 0 1 1.977 2.304l-1.255 7.152A3 3 0 0 1 16.756 20H7.244a3 3 0 0 1 -2.965 -2.544l-1.255 -7.152A2 2 0 0 1 5.001 8z" stroke-width="2"></path>
  <path d="m17 10 -2 -6" stroke-width="2"></path>
  <path d="m7 10 2 -6" stroke-width="2"></path>
</svg>