<svg viewBox="0 0 24 24" fill="none" xmlns="http://www.w3.org/2000/svg" id="Tag--Streamline-Solar-Ar" height="24" width="24">
  <desc>
    Tag Streamline Icon: https://streamlinehq.com
  </desc>
  <path d="M4.72848 16.1369c-1.54553 -1.5455 -2.3183 -2.3183 -2.60584 -3.3209 -0.28755 -1.0026 -0.04181 -2.0675 0.44967 -4.19725l0.28343 -1.22818c0.41348 -1.79176 0.62023 -2.68765 1.2337 -3.30113 0.61348 -0.61347 1.50937 -0.82022 3.30113 -1.2337l1.22818 -0.28343c2.12975 -0.49148 3.19465 -0.73722 4.19725 -0.44967 1.0026 0.28754 1.7754 1.06031 3.3209 2.60584l1.8296 1.82964C20.6555 9.24711 22 10.5916 22 12.2623s-1.3445 3.0152 -4.0335 5.7042S13.933 22 12.2623 22s-3.01519 -1.3445 -5.70418 -4.0335l-1.82964 -1.8296Z" stroke="#000000" stroke-width="1.5"></path>
  <path stroke="#000000" d="M7.1927764376 10.2931094202a2 2 0 1 0 2.8284271248 -2.8284271247 2 2 0 1 0 -2.8284271248 2.8284271247" stroke-width="1.5"></path>
  <path d="m11.5417 18.5 6.9791 -6.9792" stroke="#000000" stroke-linecap="round" stroke-width="1.5"></path>
</svg>