<svg xmlns="http://www.w3.org/2000/svg" viewBox="0 0 24 24" fill="none" stroke="#000000" stroke-linecap="round" stroke-linejoin="round" id="Building-Store--Streamline-Tabler" height="24" width="24">
  <desc>
    Building Store Streamline Icon: https://streamlinehq.com
  </desc>
  <path d="m3 21 18 0" stroke-width="2"></path>
  <path d="M3 7v1a3 3 0 0 0 6 0V7m0 1a3 3 0 0 0 6 0V7m0 1a3 3 0 0 0 6 0V7H3l2 -4h14l2 4" stroke-width="2"></path>
  <path d="m5 21 0 -10.15" stroke-width="2"></path>
  <path d="m19 21 0 -10.15" stroke-width="2"></path>
  <path d="M9 21v-4a2 2 0 0 1 2 -2h2a2 2 0 0 1 2 2v4" stroke-width="2"></path>
</svg>